<svg id="Layer_1" enable-background="new 0 0 480 480" height="512" viewBox="0 0 480 480" width="512" xmlns="http://www.w3.org/2000/svg"><g fill="#e84857"><path d="m264 0h-48c-4.418 0-8 3.582-8 8s3.582 8 8 8h16v30c0 4.418 3.582 8 8 8s8-3.582 8-8v-30h16c4.418 0 8-3.582 8-8s-3.582-8-8-8z"/><path d="m264 464h-16v-30c0-4.418-3.582-8-8-8s-8 3.582-8 8v30h-16c-4.418 0-8 3.582-8 8s3.582 8 8 8h48c4.418 0 8-3.582 8-8s-3.582-8-8-8z"/><path d="m54 240c0-4.418-3.582-8-8-8h-30v-16c0-4.418-3.582-8-8-8s-8 3.582-8 8v48c0 4.418 3.582 8 8 8s8-3.582 8-8v-16h30c4.418 0 8-3.582 8-8z"/><path d="m472 208c-4.418 0-8 3.582-8 8v16h-30c-4.418 0-8 3.582-8 8s3.582 8 8 8h30v16c0 4.418 3.582 8 8 8s8-3.582 8-8v-48c0-4.418-3.582-8-8-8z"/><path d="m87.264 75.95 11.313-11.313c3.125-3.125 3.125-8.189 0-11.314-3.124-3.123-8.189-3.123-11.313 0l-33.94 33.939c-5.053 5.052-1.409 13.657 5.657 13.657 2.047 0 4.095-.781 5.657-2.343l11.312-11.312 21.213 21.213c3.125 3.124 8.189 3.123 11.313 0 3.125-3.124 3.125-8.189 0-11.314z"/><path d="m415.363 381.423-11.313 11.313-21.213-21.214c-3.124-3.122-8.189-3.122-11.313 0-3.125 3.124-3.125 8.189 0 11.314l21.213 21.213-11.313 11.313c-3.125 3.125-3.125 8.189 0 11.314 3.125 3.124 8.189 3.123 11.313 0l33.94-33.939c3.125-3.124 3.125-8.189 0-11.314-3.124-3.122-8.189-3.123-11.314 0z"/><path d="m97.163 371.522-21.213 21.214-11.313-11.313c-3.124-3.123-8.189-3.123-11.313 0-3.125 3.125-3.125 8.19 0 11.314l33.94 33.939c1.562 1.562 3.609 2.343 5.657 2.343 7.063 0 10.712-8.601 5.657-13.657l-11.314-11.312 21.213-21.213c3.125-3.125 3.125-8.19 0-11.314-3.124-3.124-8.19-3.124-11.314-.001z"/><path d="m382.837 108.478 21.213-21.213 11.313 11.313c1.562 1.562 3.609 2.343 5.657 2.343 7.064 0 10.712-8.603 5.657-13.657l-33.94-33.939c-3.124-3.123-8.189-3.123-11.313 0-3.125 3.125-3.125 8.189 0 11.314l11.313 11.313-21.213 21.213c-3.125 3.125-3.125 8.19 0 11.314 3.124 3.123 8.189 3.122 11.313-.001z"/></g><path d="m434 240c0 53.57-21.72 102.07-56.82 137.18-75.746 75.724-198.521 75.817-274.36 0-75.724-75.746-75.817-198.521 0-274.36 35.11-35.1 83.61-56.82 137.18-56.82 107.136 0 194 86.857 194 194z" fill="#fe4f60"/><path d="m239.81 299c19.8 0 36.09 16.29 36.09 36.1 0 19.8-16.29 36.09-36.09 36.09s-36.1-16.29-36.1-36.09c0-19.81 16.3-36.1 36.1-36.1z" fill="#e84857"/><circle cx="334" cy="222.12" fill="#e84857" r="40.9"/><path d="m275.318 49.247c27.521 5.068 25.298 45.019-2.576 47.504-93.431 8.329-167.646 82.445-175.99 175.982-2.486 27.865-42.431 30.099-47.501 2.586-11.083-60.14 6.108-125.026 53.568-172.5 47.435-47.42 112.331-64.651 172.499-53.572z" fill="#ff6d7a"/><path d="m169.75 134.02c31.14 0 56.76 25.62 56.76 56.76 0 31.13-25.62 56.75-56.76 56.75-31.13 0-56.75-25.62-56.75-56.75 0-31.14 25.62-56.76 56.75-56.76z" fill="#e84857"/></svg>